<svg width="79" height="50" viewBox="0 0 79 50" fill="none" xmlns="http://www.w3.org/2000/svg">
<path d="M58.881 38.8712C58.753 38.8712 58.5947 38.8607 58.406 38.8396C58.214 38.8396 58.0074 38.7974 57.7861 38.7132C57.4661 38.7132 57.2577 38.6816 57.1611 38.6183C57.0678 38.5341 56.9901 38.4182 56.9281 38.2707C56.7435 37.9546 56.7556 37.7439 56.9643 37.6386C57.1763 37.5121 57.6836 37.4068 58.4863 37.3225C58.8623 37.2382 59.4057 37.175 60.1164 37.1329C60.8517 37.0696 61.637 37.0275 62.4724 37.0064C63.3111 36.9643 64.1054 36.9327 64.8554 36.9116C65.6054 36.8905 66.1937 36.88 66.6204 36.88C67.1751 36.88 67.5451 36.9011 67.7304 36.9432C67.9157 36.9854 68.1074 37.1223 68.3053 37.3541C68.5753 37.6702 68.6442 37.9757 68.5121 38.2707C68.3834 38.5446 68.0804 38.6394 67.6031 38.5551C67.4964 38.5551 67.3241 38.5657 67.0861 38.5867C66.8694 38.6078 66.6207 38.6289 66.3401 38.6499C66.0807 38.671 65.8214 38.6921 65.5621 38.7132C65.4341 38.7132 65.0804 38.7237 64.5011 38.7448C63.9217 38.7658 63.2464 38.7869 62.475 38.808C61.725 38.829 61.0087 38.8396 60.326 38.8396C59.6614 38.8607 59.1797 38.8712 58.881 38.8712Z" fill="black"/>
<path d="M11.3295 33.4486C10.6404 33.1753 10.2793 32.886 10.2463 32.5805C10.2565 32.5162 10.2654 32.46 10.2731 32.4117C10.352 31.9134 11.0227 31.3266 12.2853 30.6515C14.1496 29.6708 15.3727 28.9876 15.9546 28.6018C16.5391 28.1999 16.9094 27.8141 17.0657 27.4444L10.9985 25.0571L12.4063 23.8756C13.1147 24.4382 13.7848 24.8321 14.4164 25.0571C15.0644 25.2822 15.6861 25.4671 16.2817 25.6117C16.8961 25.7403 17.4973 25.9011 18.0852 26.094C18.6757 26.2708 19.2651 26.6084 19.8535 27.1068C19.3514 27.6051 18.7341 28.1115 18.0016 28.6259C17.2879 29.1243 16.5309 29.6387 15.7308 30.1692C14.9469 30.6997 14.1617 31.2382 13.3753 31.7848C12.6051 32.3314 11.9232 32.886 11.3295 33.4486Z" fill="black"/>
<path d="M22 36.5788L24.5223 20.4306C25.8552 21.011 26.4077 21.9174 26.5871 22.2904L24.6053 34.9782C24.7017 34.9782 24.8003 34.9756 24.9011 34.9704C24.8181 35.2882 24.6758 35.626 24.5025 35.9388C24.3223 36.2642 24.1095 36.561 23.8966 36.7792C23.6928 36.7954 23.4975 36.8034 23.3108 36.8034C22.7874 36.8034 22.3505 36.7285 22 36.5788Z" fill="#F2C344"/>
<path d="M24.5529 35.9676C24.7312 35.6456 24.8778 35.2961 24.9617 34.967C26.2193 34.89 27.8106 34.4164 29.7358 33.546C30.9754 32.9762 32.0979 32.3753 33.1035 31.7434L35.6092 31.8987C33.5001 33.4394 31.0667 34.6999 28.3089 35.6802C26.5937 36.3034 25.152 36.6673 23.9839 36.7718C24.1856 36.5546 24.3839 36.2728 24.5529 35.9676Z" fill="#911D5C"/>
<path d="M35.8034 31.7554C35.911 31.6752 36.0178 31.5942 36.1237 31.5124L35.8034 31.7554Z" fill="#333333"/>
<path d="M37.8053 30.1002C39.4144 28.5822 40.3347 27.0818 40.5663 25.5991C40.5927 25.4306 40.6096 25.2621 40.6173 25.0936C40.8073 23.8768 40.6647 22.8752 40.1893 22.0889C39.7953 21.419 39.2448 20.858 38.5377 20.406C38.2374 20.6126 37.9412 20.8251 37.7313 21.1317C37.5469 21.4012 37.4284 21.7452 37.4378 22.225C38.3528 22.9985 38.7747 24.0296 38.7036 25.3183C38.5808 26.1045 38.2336 26.8908 37.6622 27.6771C37.5548 27.8249 37.4429 27.9714 37.3265 28.1168L37.8053 30.1002Z" fill="#57EB9B"/>
<path d="M37.4378 22.225C37.1833 22.0176 36.8341 21.7809 36.5067 21.6115C35.3479 21.0125 33.8245 20.7129 31.9365 20.7129L31.4275 20.741C29.7792 20.7757 28.3064 21.0186 27.009 21.4698C26.8527 21.0296 26.7064 20.4486 26.6563 19.7397C28.4277 19.2646 30.205 19 32.12 19C34.8981 19 37.0732 19.4913 38.5377 20.406C38.2443 20.6082 37.9486 20.8238 37.7376 21.1322C37.5518 21.4037 37.437 21.7599 37.4378 22.225Z" fill="#E06338"/>
<path d="M40.2931 34.5289C40.3486 34.1732 40.5371 33.8643 40.8584 33.6022C41.2013 33.3214 41.4549 33.1342 41.6191 33.0406C41.8048 32.9282 41.9301 32.844 41.995 32.7878C41.8224 34.4914 42.8389 35.3432 45.0446 35.3432C45.7398 35.3432 46.4949 35.2564 47.3098 35.0828C47.3101 35.1092 47.314 35.1358 47.322 35.1626C47.4095 35.4556 47.5315 35.7647 47.655 36.0777C47.7308 36.2699 47.8072 36.4636 47.8765 36.6559C46.8134 36.8853 45.9234 37 45.2064 37C44.2531 37 43.3728 36.8315 42.5656 36.4945C41.7584 36.1576 41.1647 35.83 40.7844 35.5117C40.4042 35.1934 40.2404 34.8658 40.2931 34.5289Z" fill="#53A9DD"/>
<path d="M48.6659 36.4723C49.0693 36.3723 49.4943 36.258 49.9408 36.1295C52.3698 35.4181 54.3189 34.5476 55.7882 33.5179C57.0904 32.6006 57.819 31.6459 57.974 30.6537C58.0296 30.298 57.9961 29.9142 57.8735 29.5023C54.6609 28.5289 51.9453 27.7239 49.7269 27.0874C48.8145 26.8253 48.0709 26.6193 47.4962 26.4696C46.9243 26.3011 46.4322 26.1607 46.0198 26.0484C45.6074 25.936 45.4085 25.8331 45.4232 25.7395C45.515 25.2715 45.7554 24.869 46.1445 24.532C46.5523 24.195 47.1643 23.8674 47.9804 23.5491C48.3573 23.4054 48.9767 23.2465 49.8387 23.0722L49.795 23.0799C49.6626 22.3088 49.7933 21.7951 50.0481 21.4129C50.1612 21.2434 50.2984 21.1004 50.4466 20.9726C48.6965 21.4521 47.1706 22.0301 45.8688 22.7067C43.8732 23.7551 42.7745 24.9251 42.5728 26.2168C42.5201 26.5538 42.7514 26.9282 43.2665 27.3401C43.5463 27.5835 43.8485 27.7426 44.1733 27.8175L55.4015 30.429C55.4429 30.5226 55.4505 30.6537 55.4242 30.8222C55.4008 30.9719 55.2766 31.1685 55.0517 31.4119C54.3681 32.1981 53.1454 32.9657 51.3834 33.7145C50.4628 34.1164 49.5934 34.4439 48.7753 34.6971C48.655 35.0968 48.6351 35.8018 48.6659 36.4723Z" fill="#F2C94C"/>
<path d="M49.96 21.4827C50.0942 21.2815 50.2636 21.1185 50.4466 20.9726C51.6127 20.6586 53.013 20.3509 54.3756 20.1232C55.1625 19.9922 55.7443 19.9173 56.121 19.8986C56.2274 19.936 56.3897 19.9735 56.6082 20.0109C56.8483 20.0296 57.0854 20.0671 57.3197 20.1232C57.8787 20.2543 58.0837 20.4977 57.9346 20.8534C57.8352 21.4899 56.5412 21.9953 54.0527 22.3697C52.2977 22.6253 50.8405 22.869 49.795 23.0799C49.6648 22.321 49.7151 21.8499 49.96 21.4827Z" fill="#F05600" fill-opacity="0.79"/>
<path d="M8.17516 3.58406C8.3826 2.10236 9.65004 1 11.1462 1H74.0682C75.8904 1 77.2918 2.61128 77.0392 4.41594L71.1592 46.4159C70.9518 47.8976 69.6843 49 68.1882 49H5.26618C3.44392 49 2.04251 47.3887 2.29516 45.5841L8.17516 3.58406Z" stroke="black" stroke-width="2"/>
<line x1="7.66718" y1="11" x2="75.6672" y2="11" stroke="black" stroke-width="2"/>
<circle cx="14.6672" cy="6" r="2" fill="black"/>
<circle cx="21.6672" cy="6" r="2" fill="black"/>
<circle cx="28.6672" cy="6" r="2" fill="black"/>
</svg>
