<svg width="86" height="53" viewBox="0 0 86 53" fill="none" xmlns="http://www.w3.org/2000/svg">
<path fill-rule="evenodd" clip-rule="evenodd" d="M8.10993 3.39673C8.40798 1.44315 10.088 0 12.0642 0H81.3434C83.7929 0 85.6671 2.18178 85.2977 4.60328L78.89 46.6033C78.5919 48.5569 76.9119 50 74.9357 50H5.65649C3.20697 50 1.33281 47.8182 1.70224 45.3967L8.10993 3.39673ZM12.0642 2H81.3434C82.5682 2 83.5052 3.09089 83.3205 4.30164L82.4512 10H9.12565L10.0871 3.69837C10.2361 2.72157 11.0761 2 12.0642 2ZM8.82052 12L3.67936 45.6984C3.49465 46.9091 4.43173 48 5.65649 48H74.9357C75.9238 48 76.7638 47.2784 76.9128 46.3016L82.146 12H8.82052Z" fill="#FF00E5"/>
<path d="M8.82052 12L3.67936 45.6984C3.49465 46.9091 4.43173 48 5.65649 48H74.9357C75.9238 48 76.7638 47.2784 76.9128 46.3016L82.146 12H8.82052Z" fill="#1E1D40"/>
<circle cx="14.6672" cy="6" r="2" fill="#FF00E5"/>
<circle cx="21.6672" cy="6" r="2" fill="#FF00E5"/>
<circle cx="28.6672" cy="6" r="2" fill="#FF00E5"/>
<path d="M64.881 39.8712C64.753 39.8712 64.5946 39.8607 64.406 39.8396C64.214 39.8396 64.0073 39.7974 63.786 39.7132C63.466 39.7132 63.2577 39.6816 63.161 39.6183C63.0677 39.5341 62.9901 39.4182 62.9281 39.2707C62.7435 38.9546 62.7555 38.7439 62.9642 38.6386C63.1762 38.5121 63.6836 38.4068 64.4863 38.3225C64.8623 38.2382 65.4056 38.175 66.1163 38.1329C66.8516 38.0696 67.637 38.0275 68.4723 38.0064C69.311 37.9643 70.1053 37.9327 70.8553 37.9116C71.6053 37.8905 72.1937 37.88 72.6203 37.88C73.175 37.88 73.545 37.9011 73.7303 37.9432C73.9157 37.9854 74.1073 38.1223 74.3053 38.3541C74.5752 38.6702 74.6441 38.9757 74.5121 39.2707C74.3834 39.5446 74.0804 39.6394 73.603 39.5551C73.4964 39.5551 73.324 39.5657 73.086 39.5867C72.8694 39.6078 72.6207 39.6289 72.34 39.6499C72.0807 39.671 71.8213 39.6921 71.562 39.7132C71.434 39.7132 71.0803 39.7237 70.501 39.7448C69.9217 39.7658 69.2463 39.7869 68.475 39.808C67.725 39.829 67.0086 39.8396 66.326 39.8396C65.6613 39.8607 65.1796 39.8712 64.881 39.8712Z" fill="#00F0FF"/>
<path d="M11.3295 34.4486C10.6404 34.1753 10.2793 33.886 10.2463 33.5805C10.2565 33.5162 10.2654 33.46 10.2731 33.4117C10.352 32.9134 11.0227 32.3266 12.2853 31.6515C14.1496 30.6708 15.3727 29.9876 15.9546 29.6018C16.5391 29.1999 16.9094 28.8141 17.0657 28.4444L10.9985 26.0571L12.4063 24.8756C13.1147 25.4382 13.7848 25.8321 14.4164 26.0571C15.0644 26.2822 15.6861 26.4671 16.2817 26.6117C16.8961 26.7403 17.4973 26.9011 18.0852 27.094C18.6757 27.2708 19.2651 27.6084 19.8535 28.1068C19.3514 28.6051 18.7341 29.1115 18.0016 29.6259C17.2879 30.1243 16.5309 30.6387 15.7308 31.1692C14.9469 31.6997 14.1617 32.2382 13.3753 32.7848C12.6051 33.3314 11.9232 33.886 11.3295 34.4486Z" fill="#00F0FF"/>
<path d="M39.5096 15.1325C39.226 16.9227 38.8917 18.6756 38.5067 20.3912C38.1436 22.0881 37.7848 23.7571 37.4305 25.3981C37.098 27.0205 36.7856 28.7547 36.4932 30.6008C36.2038 32.4283 36.0288 34.3677 35.9682 36.4189C35.9003 36.8478 35.7666 37.1555 35.5671 37.342C35.3865 37.5285 35.1074 37.6217 34.7298 37.6217C33.8425 37.6217 33.514 36.8945 33.7443 35.4399L33.8905 34.5169C30.8965 36.4935 28.4743 37.4819 26.6241 37.4819C25.8877 37.4819 25.1606 37.3047 24.4426 36.9504C23.7435 36.5961 23.1398 35.8781 22.6314 34.7966C22.6079 34.349 22.633 33.8922 22.7069 33.426C22.7807 32.9598 22.9543 32.4003 23.2276 31.7477C23.5227 31.0763 24.0002 30.3864 24.6599 29.6778C25.3386 28.9692 26.1172 28.3445 26.9958 27.8037C28.9159 26.6475 30.886 26.0694 32.9062 26.0694C33.7747 26.0694 34.5848 26.2 35.3364 26.461C35.3896 26.1254 35.5015 25.538 35.6721 24.6988C35.8617 23.8597 36.0586 22.9739 36.2629 22.0415C36.7602 19.6173 37.0616 18.1907 37.1673 17.7618C37.276 17.3143 37.3822 16.9413 37.4861 16.643C37.6119 16.326 37.7585 16.0556 37.9261 15.8318C38.2832 15.3656 38.811 15.1325 39.5096 15.1325ZM24.8097 33.2022C24.5764 34.6754 24.9978 35.412 26.074 35.412C26.2439 35.412 26.4357 35.3933 26.6492 35.356C27.4233 35.356 28.4122 35.1322 29.6159 34.6847C31.9012 33.8455 33.3285 33.1183 33.898 32.5029L34.4872 28.7827C34.5906 28.13 34.1042 27.8037 33.028 27.8037C32.8988 27.785 32.7209 27.7757 32.4944 27.7757C32.2867 27.7757 31.9489 27.8223 31.481 27.9156C31.0131 28.0088 30.4768 28.1766 29.872 28.419C29.2672 28.6615 28.6629 28.9598 28.0593 29.3141C26.7865 30.0787 25.8518 30.9738 25.2551 31.9994C25.0231 32.391 24.8747 32.7919 24.8097 33.2022ZM48.2533 30.3771C50.3301 30.3771 51.2858 30.8992 51.1204 31.9435C50.9964 32.7267 50.2758 33.6404 48.9587 34.6847C46.9955 36.2325 44.4862 37.4725 41.431 38.4049C41.2988 38.4049 41.1685 38.2744 41.0399 38.0133C40.9302 37.7522 40.8385 37.5564 40.7648 37.4259C40.7129 37.2767 40.671 37.1835 40.6391 37.1462C42.9226 36.4376 44.8426 35.5798 46.3993 34.5728C47.4496 33.9015 48.0087 33.3514 48.0767 32.9225C48.1446 32.4936 47.6216 32.2791 46.5077 32.2791C45.3937 32.2791 43.7192 32.5402 41.4842 33.0623C40.5083 33.025 39.7134 32.6801 39.0993 32.0274C38.5678 31.4493 38.3478 30.8712 38.4394 30.2931C38.5339 29.6964 38.7895 29.1556 39.2061 28.6708C39.6257 28.1673 40.1527 27.7011 40.787 27.2722C41.4213 26.8433 42.1442 26.4517 42.9555 26.0974C44.9446 25.221 46.9303 24.7827 48.9128 24.7827C49.498 24.7827 50.0556 24.8387 50.5854 24.9506C51.0385 24.9506 51.2718 25.1464 51.2853 25.538C51.2988 25.9296 51.2347 26.5729 51.0929 27.468C50.0587 26.9645 48.8431 26.7128 47.4459 26.7128C45.709 26.7128 44.2194 27.0578 42.9773 27.7477C41.7004 28.419 40.9574 29.2955 40.7484 30.3771C40.6657 30.8992 41.0114 31.1603 41.7855 31.1603L43.8883 30.9365C45.7221 30.5635 47.1771 30.3771 48.2533 30.3771ZM67.5037 27.3841C66.7993 26.8247 65.8241 26.5449 64.578 26.5449C63.4074 26.5449 62.2878 26.7594 61.2192 27.1883C59.2072 27.9715 57.7544 28.9785 56.8609 30.2092C56.4702 30.7687 56.2247 31.3654 56.1242 31.9994C56.1065 32.1113 56.0563 32.4283 55.9736 32.9504C55.8939 33.4539 55.879 34.1439 55.929 35.0204C55.9819 35.8781 55.9375 36.7546 55.7957 37.6497C55.3963 37.6683 55.0679 37.715 54.8107 37.7895C54.5534 37.8641 54.3398 37.9014 54.1699 37.9014C54 37.9014 53.8608 37.8268 53.7522 37.6777C53.6626 37.5285 53.5762 37.2394 53.4931 36.8105C53.4919 36.6986 53.5044 36.3816 53.5304 35.8595C53.5565 35.3374 53.5814 34.7033 53.6051 33.9574C53.6477 33.2115 53.6818 32.4003 53.7074 31.5239C53.7547 30.6288 53.7991 29.7524 53.8406 28.8946C53.9283 27.0298 53.9849 25.6592 54.0104 24.7827C54.0813 24.3352 54.4471 24.1114 55.1079 24.1114C55.5044 24.1114 55.7894 24.2792 55.9628 24.6149C56.1391 24.9319 56.2594 25.3049 56.3236 25.7338C56.3908 26.144 56.4108 26.5543 56.3836 26.9645C56.3753 27.3748 56.3767 27.6638 56.3879 27.8316C59.2286 25.6312 62.4992 24.531 66.1997 24.531C66.6151 24.531 67.0478 24.5403 67.498 24.559C67.6142 24.5403 67.7573 24.531 67.9272 24.531C68.0972 24.531 68.2494 24.6429 68.3838 24.8666C68.5502 25.1277 68.6038 25.4447 68.5447 25.8177C68.3971 26.7501 68.05 27.2722 67.5037 27.3841Z" fill="#FFD810"/>
</svg>
