<svg width="79" height="52" viewBox="0 0 79 52" fill="none" xmlns="http://www.w3.org/2000/svg">
<path d="M59.2139 38.8712C59.0859 38.8712 58.9275 38.8607 58.7389 38.8396C58.5469 38.8396 58.3402 38.7974 58.1189 38.7132C57.7989 38.7132 57.5906 38.6816 57.4939 38.6183C57.4006 38.5341 57.3229 38.4182 57.261 38.2707C57.0764 37.9546 57.0884 37.7439 57.2971 37.6386C57.5091 37.5121 58.0165 37.4068 58.8191 37.3225C59.1952 37.2382 59.7385 37.175 60.4492 37.1329C61.1845 37.0696 61.9699 37.0275 62.8052 37.0064C63.6439 36.9643 64.4382 36.9327 65.1882 36.9116C65.9382 36.8905 66.5266 36.88 66.9532 36.88C67.5079 36.88 67.8779 36.9011 68.0632 36.9432C68.2485 36.9854 68.4402 37.1223 68.6381 37.3541C68.9081 37.6702 68.977 37.9757 68.845 38.2707C68.7163 38.5446 68.4132 38.6394 67.9359 38.5551C67.8293 38.5551 67.6569 38.5657 67.4189 38.5867C67.2022 38.6078 66.9536 38.6289 66.6729 38.6499C66.4136 38.671 66.1542 38.6921 65.8949 38.7132C65.7669 38.7132 65.4132 38.7237 64.8339 38.7448C64.2545 38.7658 63.5792 38.7869 62.8079 38.808C62.0579 38.829 61.3415 38.8396 60.6589 38.8396C59.9942 38.8607 59.5125 38.8712 59.2139 38.8712Z" fill="black"/>
<path d="M11.6624 33.4486C10.9732 33.1753 10.6121 32.886 10.5791 32.5805C10.5893 32.5162 10.5982 32.46 10.6059 32.4117C10.6848 31.9134 11.3555 31.3266 12.6181 30.6515C14.4824 29.6708 15.7055 28.9876 16.2874 28.6018C16.8719 28.1999 17.2423 27.8141 17.3985 27.4444L11.3313 25.0571L12.7391 23.8756C13.4475 24.4382 14.1176 24.8321 14.7492 25.0571C15.3972 25.2822 16.019 25.4671 16.6145 25.6117C17.2289 25.7403 17.8301 25.9011 18.418 26.094C19.0085 26.2708 19.5979 26.6084 20.1863 27.1068C19.6842 27.6051 19.0669 28.1115 18.3344 28.6259C17.6207 29.1243 16.8638 29.6387 16.0636 30.1692C15.2797 30.6997 14.4945 31.2382 13.7081 31.7848C12.9379 32.3314 12.256 32.886 11.6624 33.4486Z" fill="black"/>
<path d="M26.8117 19.4192C28.2856 18.9343 30.1743 18.6919 32.4777 18.6919C36.688 18.6919 39.4047 19.7175 40.628 21.7688C41.1082 22.552 41.2522 23.5496 41.0602 24.7617C41.0525 24.9296 41.0354 25.0974 41.0088 25.2652C40.7135 27.13 39.3092 29.0228 36.796 30.9435C34.4893 32.7523 31.7668 34.2068 28.6283 35.307C26.5466 36.053 24.8639 36.4259 23.58 36.4259C23.0514 36.4259 22.61 36.3513 22.2561 36.2021L25.0206 18.7478H25.417C25.8513 18.7478 26.1888 18.8224 26.4295 18.9716C26.6731 19.1021 26.8005 19.2513 26.8117 19.4192ZM39.1273 24.9855C39.2203 23.3259 38.4806 22.0951 36.9084 21.2933C35.738 20.6965 34.1993 20.3982 32.2924 20.3982L31.7782 20.4261C29.9787 20.4634 28.3862 20.7431 27.0007 21.2653L24.8875 34.6078C26.2091 34.6078 27.9365 34.1322 30.0695 33.1812C33.7715 31.5029 36.4402 29.5542 38.0755 27.3351C38.6527 26.5519 39.0033 25.7687 39.1273 24.9855ZM40.7328 34.1602C40.7889 33.8059 40.9793 33.4982 41.3038 33.2371C41.6502 32.9574 41.9063 32.771 42.0721 32.6777C42.2597 32.5658 42.3863 32.4819 42.4518 32.426C42.2774 34.1229 43.3042 34.9714 45.5321 34.9714C47.2879 34.9714 49.4221 34.4306 51.9345 33.349C53.7141 32.6031 54.9491 31.8386 55.6396 31.0554C55.8668 30.8129 55.9922 30.6171 56.0158 30.468C56.0424 30.3001 56.0348 30.1696 55.9929 30.0763L44.652 27.475C44.324 27.4004 44.0187 27.2419 43.7361 26.9995C43.2158 26.5892 42.9822 26.2163 43.0354 25.8806C43.2392 24.5939 44.3489 23.4284 46.3646 22.3841C48.5838 21.2466 51.4478 20.3888 54.9567 19.8108C55.7515 19.6802 56.3391 19.6056 56.7197 19.587C56.8271 19.6243 56.9911 19.6616 57.2117 19.6989C57.4542 19.7175 57.6938 19.7548 57.9303 19.8108C58.495 19.9413 58.702 20.1837 58.5515 20.538C58.4511 21.172 57.1441 21.6755 54.6306 22.0485C51.3849 22.5147 49.3404 22.9063 48.4973 23.2233C47.673 23.5403 47.0549 23.8666 46.643 24.2023C46.25 24.538 46.0071 24.9389 45.9144 25.4051C45.8996 25.4983 46.1005 25.6009 46.517 25.7128C46.9336 25.8247 47.4306 25.9645 48.0082 26.1323C48.5887 26.2815 49.3398 26.4867 50.2613 26.7477C52.502 27.3817 55.2448 28.1836 58.4897 29.1533C58.6135 29.5635 58.6474 29.9458 58.5913 30.3001C58.4347 31.2885 57.6988 32.2395 56.3835 33.1532C54.8994 34.1789 52.9307 35.046 50.4773 35.7546C48.4411 36.3327 46.8472 36.6217 45.6955 36.6217C44.7326 36.6217 43.8435 36.4539 43.0282 36.1182C42.2128 35.7826 41.6131 35.4562 41.2291 35.1392C40.8451 34.8222 40.6796 34.4959 40.7328 34.1602Z" fill="black"/>
<path d="M8.50798 3.58406C8.71542 2.10236 9.98287 1 11.479 1H74.401C76.2233 1 77.6247 2.61128 77.372 4.41594L71.492 46.4159C71.2846 47.8976 70.0171 49 68.521 49H5.59901C3.77674 49 2.37533 47.3887 2.62798 45.5841L8.50798 3.58406Z" stroke="black" stroke-width="2"/>
<line x1="8" y1="11" x2="76" y2="11" stroke="black" stroke-width="2"/>
<circle cx="15" cy="6" r="2" fill="black"/>
<circle cx="22" cy="6" r="2" fill="black"/>
<circle cx="29" cy="6" r="2" fill="black"/>
</svg>
